<svg xmlns="http://www.w3.org/2000/svg" width="218" height="83" viewBox="0 0 218 83">
    <defs>
        <linearGradient id="prefix__a" x1="-56.094%" x2="173.848%" y1="-23.532%" y2="122.497%">
            <stop offset="0%" stop-opacity="0"/>
            <stop offset="99%"/>
        </linearGradient>
        <linearGradient id="prefix__b" x1="65.452%" x2="-6.579%" y1="31.346%" y2="127.475%">
            <stop offset="0%" stop-opacity="0"/>
            <stop offset="99%"/>
        </linearGradient>
        <linearGradient id="prefix__c" x1="124.311%" x2="-77.723%" y1="117.846%" y2="-77.585%">
            <stop offset="0%" stop-opacity="0"/>
            <stop offset="99%"/>
        </linearGradient>
        <linearGradient id="prefix__d" x1="107.458%" x2="-87.126%" y1="52.864%" y2="43.146%">
            <stop offset="0%" stop-opacity="0"/>
            <stop offset="99%"/>
        </linearGradient>
        <linearGradient id="prefix__e" x1="91.832%" x2="-57.843%" y1="-12.455%" y2="224.75%">
            <stop offset="0%" stop-opacity="0"/>
            <stop offset="99%"/>
        </linearGradient>
        <linearGradient id="prefix__f" x1="57.225%" x2="28.527%" y1="119.089%" y2="-51.358%">
            <stop offset="0%" stop-opacity="0"/>
            <stop offset="99%"/>
        </linearGradient>
        <linearGradient id="prefix__g" x1="38.003%" x2="77.608%" y1="53.595%" y2="33.702%">
            <stop offset="0%" stop-opacity="0"/>
            <stop offset="99%"/>
        </linearGradient>
        <linearGradient id="prefix__h" x1="-4.756%" x2="175.01%" y1="17.587%" y2="116.847%">
            <stop offset="0%" stop-opacity="0"/>
            <stop offset="99%"/>
        </linearGradient>
    </defs>
    <g fill="none">
        <path fill="#0F96CD" d="M0 48.38c4.26-4.731 4.26-4.731 9.092-10.409L29.654 13.94c4.55-5.208 6.35-7.57 8.785-11.28h19.45c-.555 5.216-.809 10.46-.758 15.704v30.774h2.748c3.151-.03 6.297-.283 9.412-.758V65.6c-3.081-.378-6.182-.566-9.287-.564h-2.842v4.731c-.09 3.894.163 7.788.76 11.637H38.368c.538-3.918.792-7.87.76-11.825v-4.637H12.317c-6.162 0-8.784.094-12.317.376V48.38zm39.223-10.026c0-4.261.188-9.463.57-13.63-1.882 2.65-3.318 4.543-5.872 7.758L20.085 49.326h19.138V38.354z"/>
        <path fill="url(#prefix__a)" d="M0 48.38c4.26-4.731 4.26-4.731 9.092-10.409L29.654 13.94c4.55-5.208 6.35-7.57 8.785-11.28h19.45c-.555 5.216-.809 10.46-.758 15.704v30.774h2.748c3.151-.03 6.297-.283 9.412-.758V65.6c-3.081-.378-6.182-.566-9.287-.564h-2.842v4.731c-.09 3.894.163 7.788.76 11.637H38.368c.538-3.918.792-7.87.76-11.825v-4.637H12.317c-6.162 0-8.784.094-12.317.376V48.38zm39.223-10.026c0-4.261.188-9.463.57-13.63-1.882 2.65-3.318 4.543-5.872 7.758L20.085 49.326h19.138V38.354z"/>
        <path fill="#0F96CD" d="M105.512 24.575c1.87.312 3.61 1.462 5.486 1.874 1.64.375 3.366.182 4.987.757 3.024 1.074 4.987 4.73 5.417 8.398.43 3.668-.336 7.38-1.209 10.942-2.294 9.386-5.411 18.76-11.022 25.877-.392.494-.866 1.012-1.446 1-.402-.056-.778-.232-1.078-.506-1.178-.809-2.256-1.755-3.21-2.819-1.497-1.806-2.363-4.186-3.118-6.549-2.126-6.648-6.184-10.86-6.938-17.909-.823-7.393 3.21-22.54 12.131-21.065z"/>
        <path fill="url(#prefix__b)" d="M99.406 29.317c-.813-.145-1.651.004-2.361.42-1.505.915-2.562 2.402-2.92 4.11-.345 1.695-.408 3.433-.185 5.147.435 5.03 1.423 9.999 2.946 14.818.445 1.395-.827 4.707.095 5.85.751.93.376 6.517 1.356 7.208 2.717 1.936 8.361.867 11.079 2.803 3.518 2.513 3.283-4.123 2.723-6.856-.636-3.048-5.415-2.514-9.074-12.807-4.868-13.7-2.412-20.41-3.66-20.693z"/>
        <path fill="#0F96CD" d="M146.577 47.865c4.262-4.732 4.262-4.732 9.096-10.41l20.571-24.045c3.211-3.533 6.149-7.305 8.789-11.282h19.46c-.556 5.22-.81 10.466-.76 15.714v30.763h2.75c3.142-.034 6.278-.288 9.385-.759V65.07c-3.082-.383-6.185-.573-9.29-.57h-2.844v4.732c-.092 3.895.162 7.79.76 11.64h-19.53c.536-3.903.79-7.839.76-11.778v-4.638H158.9c-6.165 0-8.82.094-12.323.383V47.865zm39.24-10.029c0-4.262.189-9.464.566-13.626-1.884 2.645-3.315 4.538-5.876 7.76l-13.81 16.848h19.146l-.025-10.982z"/>
        <path fill="url(#prefix__c)" d="M146.577 47.865c4.262-4.732 4.262-4.732 9.096-10.41l20.571-24.045c3.211-3.533 6.149-7.305 8.789-11.282h19.46c-.556 5.22-.81 10.466-.76 15.714v30.763h2.75c3.142-.034 6.278-.288 9.385-.759V65.07c-3.082-.383-6.185-.573-9.29-.57h-2.844v4.732c-.092 3.895.162 7.79.76 11.64h-19.53c.536-3.903.79-7.839.76-11.778v-4.638H158.9c-6.165 0-8.82.094-12.323.383V47.865zm39.24-10.029c0-4.262.189-9.464.566-13.626-1.884 2.645-3.315 4.538-5.876 7.76l-13.81 16.848h19.146l-.025-10.982z"/>
        <path fill="#0F96CD" d="M85.22 73.623c-3.021-2.986-5.374-6.582-6.902-10.55-2.496-6.978-3.747-14.341-3.695-21.754 0-9.971 2.371-20.326 5.973-26.309C86.375 5.316 96.226 0 108.166 0c9.192 0 17.242 3.145 23.02 8.807 3.022 2.984 5.374 6.578 6.902 10.544 2.502 7.009 3.75 14.405 3.69 21.848 0 9.978-2.366 20.427-5.967 26.422-5.685 9.512-15.63 14.847-27.664 14.847-9.286 0-17.148-3.057-22.927-8.845zm8.784-33.059c0 16.986 4.832 25.743 14.212 25.743 9.38 0 14.023-8.55 14.023-25.46 0-16.243-4.925-24.793-14.117-24.793-8.879 0-14.093 9.022-14.093 24.51h-.025z"/>
        <path fill="url(#prefix__d)" d="M85.22 73.623c-3.021-2.986-5.374-6.582-6.902-10.55-2.496-6.978-3.747-14.341-3.695-21.754 0-9.971 2.371-20.326 5.973-26.309C86.375 5.316 96.226 0 108.166 0c9.192 0 17.242 3.145 23.02 8.807 3.022 2.984 5.374 6.578 6.902 10.544 2.502 7.009 3.75 14.405 3.69 21.848 0 9.978-2.366 20.427-5.967 26.422-5.685 9.512-15.63 14.847-27.664 14.847-9.286 0-17.148-3.057-22.927-8.845zm8.784-33.059c0 16.986 4.832 25.743 14.212 25.743 9.38 0 14.023-8.55 14.023-25.46 0-16.243-4.925-24.793-14.117-24.793-8.879 0-14.093 9.022-14.093 24.51h-.025z"/>
        <path fill="#0F96CD" d="M2.132 47.865c4.266-4.732 4.266-4.732 9.097-10.41L31.79 13.41C35 9.877 37.936 6.105 40.574 2.128h19.45c-.556 5.22-.81 10.466-.76 15.714v30.763h2.749c3.15-.033 6.296-.286 9.411-.759V65.07c-3.08-.383-6.182-.573-9.286-.57h-2.842v4.732c-.091 3.895.163 7.79.76 11.64h-19.55c.535-3.903.789-7.839.758-11.778v-4.638H14.448c-6.155 0-8.784.094-12.316.383V47.865zm39.226-10.029c0-4.262.188-9.464.564-13.626-1.882 2.645-3.312 4.538-5.872 7.76L22.247 48.818h19.11V37.836zM87.367 74.16c-3.02-2.984-5.372-6.579-6.9-10.545-2.501-6.978-3.758-14.343-3.713-21.758 0-9.972 2.371-20.329 5.971-26.319C88.502 5.848 98.35.532 110.285.532c9.182 0 17.236 3.146 23.013 8.809 3.021 2.982 5.374 6.577 6.899 10.545 2.515 7.013 3.772 14.418 3.713 21.87 0 9.973-2.365 20.43-5.965 26.427-5.682 9.5-15.63 14.817-27.654 14.817-9.282-.006-17.141-3.045-22.924-8.84zm8.83-33.033c0 16.989 4.83 25.747 14.207 25.747 9.283 0 14.018-8.55 14.018-25.457 0-16.252-4.93-24.803-14.112-24.803-8.925-.025-14.112 8.998-14.112 24.513z"/>
        <path fill="url(#prefix__e)" d="M125.53 7.98c1.459 1.053 2.137 2.868 1.719 4.606 2.418.228 4.643 1.403 6.18 3.262 1.364 1.78 2.19 3.905 2.38 6.13.182 2.21.134 4.435-.146 6.637-.032.76-.19 1.511-.47 2.22-.664 1.247-1.859 2.133-3.255 2.416-1.378.272-2.79.338-4.188.195l-3.331-.176c-.11.002-.219-.021-.317-.07-.135-.113-.215-.276-.222-.45-.229-1.35-.578-1.94-.825-3.288-.619-2.848-1.829-5.538-3.554-7.899-.305-.353-.523-.772-.634-1.223-.038-.624.102-1.246.406-1.794.45-1.08.824-2.188 1.117-3.32.269-1.353.618-2.69 1.047-4.002.436-1.326 1.336-2.456 2.538-3.187"/>
        <path fill="url(#prefix__f)" d="M124.19 47.299s12.052 1.063 17.557-6.254c2.194-2.901-2.696-16.57-2.696-16.57l-5.562 9.93-8.778 1.988-.52 10.906z"/>
        <path fill="#0F96CD" d="M148.709 47.854c4.261-4.731 4.261-4.731 9.094-10.408l20.565-24.038c4.55-5.201 6.352-7.57 8.787-11.28h19.454c-.55 5.224-.798 10.476-.74 15.729v30.755h2.749c3.141-.034 6.276-.287 9.382-.758v17.22c-3.081-.383-6.183-.573-9.288-.57h-2.843v4.731c-.091 3.894.163 7.788.76 11.637h-19.544c.537-3.908.79-7.85.76-11.794v-4.637h-26.817c-6.162 0-8.817.094-12.319.383v-16.97zm39.23-10.026c0-4.261.188-9.462.571-13.623-1.883 2.644-3.32 4.537-5.874 7.758l-13.838 16.844h19.141v-10.98z"/>
        <path fill="#F7AF87" d="M95.715 25.776c-.334.116-.656.26-.966.426-.29.142-.545.342-.746.588-.2.253-.249.588-.129.885.268.396.76.595 1.242.5.792-.074 1.526-.45 2.317-.58.792-.13 1.538-.656.979-1.467-.56-.81-1.906-.637-2.697-.352z"/>
        <path fill="#F7AF87" d="M98.007 27.761c-1.132-.317-2.314.217-3.332.831-.24.126-.454.303-.629.52-.215.185-.294.498-.194.774.1.275.354.45.628.43.231.024.465.008.692-.048l1.565-.29c.364-.046.719-.156 1.05-.325.71-.446 1.313-1.601.22-1.892z"/>
        <path fill="#F7AF87" d="M95.713 30.02c-.332.12-.655.264-.966.429-.294.15-.549.359-.747.614-.196.25-.245.58-.128.872.267.393.76.59 1.242.497.792-.073 1.527-.448 2.319-.577.792-.129 1.539-.645.978-1.455-.56-.81-1.919-.663-2.698-.38z"/>
        <path fill="#F7AF87" d="M98.398 31.4c-1.228-.1-2.363.672-3.32 1.437-.232.172-.428.39-.577.639-.187.221-.211.54-.06.788.152.249.444.37.724.3.242-.019.48-.078.704-.175l1.573-.584c.373-.114.725-.288 1.042-.518.657-.55 1.102-1.773-.086-1.887zM131.696 13.97c-1.856-.85-3.897-1.26-5.952-1.194-.347-.016-.694.038-1.019.16-.324.135-.534.443-.534.783.062.29.234.548.483.723.752.657 1.597 1.21 2.509 1.64.275.105.526.261.738.46.213.207.257.524.108.778-.21.281-.694.294-.853.612-.21.398.318.79.777.863.487.08.987.036 1.451-.128.325-.16.68-.257 1.044-.282.36.074.699.223.993.435 1.006.55 4.131.57 3.934-1.108-.185-1.556-2.394-3.099-3.68-3.742z"/>
        <path fill="#0F96CD" d="M116.729 27.758s13.836 5.718 15.42 5.423c1.583-.295-.976-13.99-.976-13.99l4.718-2.165s10.64 21.15 1.928 24.226c-5.387 1.808-11.224 1.746-16.572-.176l-4.518-13.318z"/>
        <path fill="#F7AF87" d="M124.019 19.85c-.05 1.237-.34 2.453-.854 3.578-1.021 1.699-2.776 2.816-4.737 3.015-.705.046-1.406.145-2.096.297-.65.134-1.19.588-1.437 1.208-.559 1.365-1.136 2.75-2.937 2.288-.169-.037-.333-.095-.49-.17-.565-.268-1.075-.644-1.499-1.107-.528-.538-.988-1.142-1.368-1.795-.196-.303-.329-.643-.389-.999-.037-.438.014-.879.15-1.296.628-2.529.729-5.393 1.62-7.858.912-2.5 2.655-4.604 4.932-5.956 2.252-1.321 5.384-1.34 7.297.462 1.048 1.056 1.71 2.437 1.883 3.92.15 1.468.125 2.95-.075 4.412z"/>
        <path fill="#606060" d="M108.518 16.594c.119-1.173.113-2.365.344-3.52.175-1.179.768-2.256 1.67-3.038.227-.18.48-.323.751-.424.244-.088.501-.137.751-.206.735-.262 1.437-.61 2.09-1.036.99-.592 2.073-1.013 3.203-1.248.764-.116 1.536-.17 2.309-.162 1.418-.025 2.842-.037 4.273-.037.336-.026.672.03.982.162.34.21.588.539.695.923.272.861.272 1.785 0 2.646-.277.852-.644 1.672-1.095 2.446-.22.488-.53.93-.914 1.304-.331-.574-.625-1.167-.926-1.766-.957.992-2.465 1.248-3.841 1.142-1.377-.106-2.728-.462-4.104-.48-.661-.07-1.323.125-1.84.542-.308.359-.523.787-.625 1.248-.29 1.027-.526 2.069-.707 3.12-.163-.306-.82-1.104-1.164-1.092-.2.02-.384.121-.507.28-.57.625-.288 2.915.238 3.576.105.1.185.225.231.362.022.186-.032.372-.15.518-.293.345-.736.527-1.188.487-.551 0-.657-1.049-.714-1.435-.231-1.442.1-2.896.238-4.312z"/>
        <path fill="url(#prefix__g)" d="M110.772 19.433c-.084-.152-.121-.32-.108-.488.014-.168-.007-.338-.061-.5-.062-.148-.185-.272-.345-.347-.047-.011-.096-.011-.143 0-.08.03-.138.091-.155.165-.237.645-.21 1.34.074 1.97.076.229.268.415.521.506.224.039.456-.023.616-.165.217-.2.285-.49.176-.747-.115-.235-.433-.182-.575-.394z"/>
        <path fill="url(#prefix__h)" d="M116.196 26.367c-.65.128-1.188.561-1.435 1.154-.558 1.305-1.135 2.628-2.933 2.187-.17-.036-.333-.09-.489-.163-.152-.125-.276-.28-.363-.453-.163-.412-.145-.87.05-1.27.444-1.037 1.48-1.724 2.644-1.751.479.02.955.081 1.423.18.288.037.626 0 .89.031.076.013.149.042.213.085z"/>
    </g>
</svg>
